<svg width="53" height="78" viewBox="0 0 53 78" fill="none" xmlns="http://www.w3.org/2000/svg">
<path d="M5.312 62V17.2H25.664C30.528 17.2 34.816 18.1387 38.528 20.016C42.24 21.8507 45.1413 24.432 47.232 27.76C49.3227 31.088 50.368 35.0347 50.368 39.6C50.368 44.1227 49.3227 48.0693 47.232 51.44C45.1413 54.768 42.24 57.3707 38.528 59.248C34.816 61.0827 30.528 62 25.664 62H5.312ZM15.68 53.488H25.152C28.1387 53.488 30.72 52.9333 32.896 51.824C35.1147 50.672 36.8213 49.0507 38.016 46.96C39.2533 44.8693 39.872 42.416 39.872 39.6C39.872 36.7413 39.2533 34.288 38.016 32.24C36.8213 30.1493 35.1147 28.5493 32.896 27.44C30.72 26.288 28.1387 25.712 25.152 25.712H15.68V53.488Z" fill="black"/>
<path d="M17 52V27H25.3732C37.0957 27.3704 39.2416 36.2543 38.9797 40.4259C38.4563 48.7593 30.6065 51.8457 27.4665 52H17Z" fill="#FF4242"/>
</svg>
