<svg width="351" height="78" viewBox="0 0 351 78" fill="none" xmlns="http://www.w3.org/2000/svg">
<path d="M14.912 37.36H36.416V45.68H14.912V37.36ZM15.68 62H5.312V17.2H39.168V25.52H15.68V62ZM38.4865 62L58.4545 17.2H68.6945L88.7265 62H77.8465L61.4625 22.448H65.5585L49.1105 62H38.4865ZM48.4705 52.4L51.2225 44.528H74.2625L77.0785 52.4H48.4705ZM93.3745 62V17.2H112.767C116.777 17.2 120.233 17.8613 123.135 19.184C126.036 20.464 128.276 22.32 129.855 24.752C131.433 27.184 132.223 30.0853 132.223 33.456C132.223 36.784 131.433 39.664 129.855 42.096C128.276 44.4853 126.036 46.32 123.135 47.6C120.233 48.88 116.777 49.52 112.767 49.52H99.1345L103.743 44.976V62H93.3745ZM121.854 62L110.655 45.744H121.727L133.055 62H121.854ZM103.743 46.128L99.1345 41.264H112.191C115.391 41.264 117.78 40.5813 119.359 39.216C120.937 37.808 121.727 35.888 121.727 33.456C121.727 30.9813 120.937 29.0613 119.359 27.696C117.78 26.3307 115.391 25.648 112.191 25.648H99.1345L103.743 20.72V46.128ZM140.437 62V17.2H160.789C165.653 17.2 169.941 18.1387 173.653 20.016C177.365 21.8507 180.266 24.432 182.357 27.76C184.448 31.088 185.493 35.0347 185.493 39.6C185.493 44.1227 184.448 48.0693 182.357 51.44C180.266 54.768 177.365 57.3707 173.653 59.248C169.941 61.0827 165.653 62 160.789 62H140.437ZM150.805 53.488H160.277C163.264 53.488 165.845 52.9333 168.021 51.824C170.24 50.672 171.946 49.0507 173.141 46.96C174.378 44.8693 174.997 42.416 174.997 39.6C174.997 36.7413 174.378 34.288 173.141 32.24C171.946 30.1493 170.24 28.5493 168.021 27.44C165.845 26.288 163.264 25.712 160.277 25.712H150.805V53.488ZM193.312 62V17.2H203.68V62H193.312ZM214.312 62V17.2H222.888L249.32 49.456H245.16V17.2H255.4V62H246.888L220.392 29.744H224.552V62H214.312ZM275.536 35.248H297.104V43.312H275.536V35.248ZM276.304 53.68H300.688V62H266V17.2H299.856V25.52H276.304V53.68ZM308.937 62V17.2H328.329C332.34 17.2 335.796 17.8613 338.697 19.184C341.598 20.464 343.838 22.32 345.417 24.752C346.996 27.184 347.785 30.0853 347.785 33.456C347.785 36.784 346.996 39.664 345.417 42.096C343.838 44.4853 341.598 46.32 338.697 47.6C335.796 48.88 332.34 49.52 328.329 49.52H314.697L319.305 44.976V62H308.937ZM337.417 62L326.217 45.744H337.289L348.617 62H337.417ZM319.305 46.128L314.697 41.264H327.753C330.953 41.264 333.342 40.5813 334.921 39.216C336.5 37.808 337.289 35.888 337.289 33.456C337.289 30.9813 336.5 29.0613 334.921 27.696C333.342 26.3307 330.953 25.648 327.753 25.648H314.697L319.305 20.72V46.128Z" fill="black"/>
<path d="M152 52V27H160.373C172.096 27.3704 174.242 36.2543 173.98 40.4259C173.456 48.7593 165.606 51.8457 162.467 52H152Z" fill="#FF4242"/>
</svg>
